<?xml version="1.0" encoding="UTF-8"?><svg id="b" xmlns="http://www.w3.org/2000/svg" viewBox="0 0 280 280"><g id="c"><g id="d"><polygon points="166.91 189.83 154.71 189.83 144.36 200 150.55 206.19 166.91 189.83"/><polygon points="122.6 199.03 116.15 205.48 124.91 211.43 129.92 206.42 122.6 199.03"/><polygon points="124.48 197.01 142.19 215.09 148.87 208.33 131.08 190.4 124.48 197.01"/><polygon points="142.42 198.25 150.82 189.86 134.23 189.86 142.42 198.25"/><polygon points="153.99 146.07 143.21 122.24 132.43 146.07 143.21 145.91 153.99 146.07"/><polygon points="113.65 189.86 106.52 197.01 114.2 204.15 128.12 189.86 113.65 189.86"/><polygon points="100.64 189.86 104.85 195.26 110.44 189.86 100.64 189.86"/><path d="M203.66,163.15v-44.88h-16.21c-47.38-46.28-88.05,0-88.05,0h-16.67v44.49c1.51,47.51,60.47,65.06,60.47,65.06,63.27-23.77,60.47-64.67,60.47-64.67ZM198.11,163.51c-1.78,43.35-54.9,60.14-54.9,60.14,0,0-53.13-16.79-54.9-60.14v-40.3h27.38l6.28,11.92-4.51,11.1-3.71-6.44-.7,23.72,21.64-50.76-2.41-5.48h21.88l-2.41,5.48,21.64,50.76-.7-23.72-3.71,6.44-4.51-11.1,6.28-11.92h27.38v40.3Z"/><path d="M188.51,176.1v4.6h-26.02v-1.67c3.8-2.76,2.61-5.73,2.61-5.73l-7.24-17.71h-8.58l-6.07,10.31-6.07-10.31h-8.58l-7.24,17.71s-1.19,2.97,2.61,5.73v1.67h-26.02v-4.6s3.5.18,4.94-3.91l.06-39.61s-.15-2.38-10.77-2.88l-.09,33.82s-.59,10,6.99,22.47l.04.06h88.29l.04-.06c7.57-12.47,6.99-22.47,6.99-22.47l-.09-33.82c-10.62.5-10.77,2.88-10.77,2.88l.06,39.61c1.44,4.09,4.94,3.91,4.94,3.91Z"/><path d="M180.59,196.51c3.69-3.56,5.18-6.68,5.18-6.68h-11.54l6.36,6.68Z"/><path d="M143.95,216.73l2.92,2.92s15.09-7.16,22.1-13.18l-7.31-7.43-17.7,17.7Z"/><path d="M163.29,197.28l7.83,7.83s4.62-3.71,7.73-6.85l-8.11-8.42-7.45,7.45Z"/><path d="M127.29,212.61s10.79,6.6,16.67,8.24l-12.29-12.62-4.38,4.38Z"/><path d="M105.55,99.37l-6.03,5.46-2.41-1.75c.8-.73.88-1.23-.27-1.85l-1.59-.84-5.87,5.32.66,1.69c.5,1.25,1.09,1.1,1.95.33l1.5,2.57-5.2,4.71-2.41-1.75c.96-.87,1.11-1.35.59-2.62l-5.39-13.24c-.34-.81-.87-1.06-1.91-.12l-1.48-2.6,8.67-7.86,2.44,1.73c-1.07.97-.94,1.43-.12,1.85l12.72,6.69c1.17.64,1.65.59,2.64-.3l1.5,2.57ZM86.68,95.48c-1.09-.67-3.31-2.58-3.31-2.58,0,0,1.58,2.55,2.11,3.67l2.29,5.64,4.21-3.82-5.31-2.91Z"/><path d="M107.4,93.74c-1.1,1-2.81.91-3.81-.19-1-1.1-.92-2.81.19-3.81,1.1-1,2.83-.94,3.83.17,1,1.1.89,2.83-.21,3.83Z"/><path d="M137.19,88.24l-7.59,2.11-1.37-2.64c1.39-.39,1.54-.91,1.21-2.09l-1.98-7.11c-.28-1.01-.59-2.79-.59-2.79,0,0-.28,1.83-.64,3.09l-2.32,7.78-2.22.62-5.89-5.35c-.92-.9-2.11-2.36-2.11-2.36,0,0,.63,1.73.92,2.77l1.93,6.94c.33,1.18.76,1.54,2.15,1.16l.16,2.98-7.14,1.99-1.41-2.64c1.39-.38,1.57-.92,1.25-2.1l-3.47-12.49c-.34-1.21-.77-1.54-2.15-1.16l-.16-2.98,6.35-1.76,9.24,8.53,3.52-12.07,6.38-1.77,1.37,2.65c-1.39.39-1.55.88-1.21,2.09l3.47,12.49c.33,1.18.73,1.55,2.12,1.17l.19,2.97Z"/><path d="M162.92,90.92l-8.06-1.1-.21-2.97c1.07.15,1.51-.12,1.24-1.39l-.38-1.76-7.85-1.08-.87,1.59c-.63,1.18-.14,1.54,1,1.7l-1,2.81-6.95-.95-.21-2.97c1.28.18,1.75-.01,2.39-1.24l6.67-12.64c.4-.78.26-1.35-1.13-1.54l1.04-2.8,11.59,1.59.25,2.98c-1.43-.2-1.7.2-1.5,1.1l3.05,14.04c.26,1.31.61,1.65,1.93,1.83l-1,2.81ZM153.76,73.97c-.19-1.26-.15-4.2-.15-4.2,0,0-.94,2.85-1.45,3.98l-2.85,5.39,5.63.77-1.18-5.94Z"/><path d="M172.68,96.62c-3.77-2.19-5.8-4.99-6.64-6.35l3.46-3.53,1.74,1.01c-.58,2.58,1.13,4.65,3.12,5.81,1.53.89,3.53,1.09,4.47-.53.81-1.4.12-2.64-2.7-5.02-2.9-2.39-5.24-5.75-2.98-9.64,2.21-3.8,6.85-3.97,11.17-1.46,3.3,1.92,5.36,4.32,6.2,5.6l-3.3,3.33-1.71-.99c.26-2.31-1.31-4.05-2.87-4.95-1.71-.99-3.38-.92-4.12.36-.72,1.25.04,2.44,2.14,4.2,3.83,3.22,6.12,6.3,3.65,10.57-2.42,4.17-7.4,4.07-11.63,1.61Z"/><path d="M188.69,109.62c-2.82-3.32-3.79-6.65-4.12-8.21l4.44-2.16,1.3,1.54c-1.41,2.23-.49,4.76,1,6.52,1.14,1.34,2.96,2.21,4.39,1,1.24-1.05.99-2.45-.86-5.64-1.93-3.22-3.01-7.17.42-10.08,3.35-2.84,7.78-1.45,11.02,2.36,2.47,2.91,3.6,5.86,3.96,7.35l-4.23,2.03-1.28-1.51c1.01-2.09.12-4.26-1.04-5.63-1.28-1.51-2.87-2-4-1.04-1.1.93-.78,2.31.61,4.67,2.53,4.32,3.66,7.99-.1,11.18-3.68,3.12-8.34,1.36-11.5-2.38Z"/><polygon points="64.75 134.1 67.02 141.09 74.37 141.09 68.43 145.41 70.7 152.4 64.75 148.08 58.81 152.4 61.08 145.41 55.13 141.09 62.48 141.09 64.75 134.1"/><polygon points="222.82 134.1 225.1 141.09 232.45 141.09 226.5 145.41 228.77 152.4 222.82 148.08 216.88 152.4 219.15 145.41 213.2 141.09 220.55 141.09 222.82 134.1"/><text transform="translate(58.84 168) rotate(82.85)" style="font-family:FuturaPT-Bold, &apos;Futura PT&apos;; font-size:23px; font-weight:700;"><tspan x="0" y="0">F</tspan></text><text transform="translate(61.33 183.95) rotate(71.97)" style="font-family:FuturaPT-Bold, &apos;Futura PT&apos;; font-size:23px; font-weight:700;"><tspan x="0" y="0">L</tspan></text><text transform="translate(66.18 198.6) rotate(58.8)" style="font-family:FuturaPT-Bold, &apos;Futura PT&apos;; font-size:23px; font-weight:700;"><tspan x="0" y="0">O</tspan></text><text transform="translate(79.77 219.34) rotate(42.12)" style="font-family:FuturaPT-Bold, &apos;Futura PT&apos;; font-size:23px; font-weight:700;"><tspan x="0" y="0">O</tspan></text><text transform="translate(98.62 234.98) rotate(27.03)" style="font-family:FuturaPT-Bold, &apos;Futura PT&apos;; font-size:23px; font-weight:700;"><tspan x="0" y="0">R</tspan></text><text transform="translate(116.22 243.06) rotate(16.28)" style="font-family:FuturaPT-Bold, &apos;Futura PT&apos;; font-size:23px; font-weight:700;"><tspan x="0" y="0">I</tspan></text><text transform="translate(128.22 246.6) rotate(3.99)" style="font-family:FuturaPT-Bold, &apos;Futura PT&apos;; font-size:23px; font-weight:700;"><tspan x="0" y="0">N</tspan></text><text transform="translate(152.66 247.42) rotate(-12.19)" style="font-family:FuturaPT-Bold, &apos;Futura PT&apos;; font-size:23px; font-weight:700;"><tspan x="0" y="0">G</tspan></text><text transform="translate(174.73 241.51) rotate(-23.56)" style="font-family:FuturaPT-Bold, &apos;Futura PT&apos;; font-size:23px; font-weight:700;"><tspan x="0" y="0"> </tspan></text><text transform="translate(184.34 237.42) rotate(-34.69)" style="font-family:FuturaPT-Bold, &apos;Futura PT&apos;; font-size:23px; font-weight:700;"><tspan x="0" y="0">&amp;</tspan></text><text transform="translate(202.12 223.81) rotate(-45.75)" style="font-family:FuturaPT-Bold, &apos;Futura PT&apos;; font-size:23px; font-weight:700;"><tspan x="0" y="0"> </tspan></text><text transform="translate(208.97 216.58) rotate(-54.3)" style="font-family:FuturaPT-Bold, &apos;Futura PT&apos;; font-size:23px; font-weight:700;"><tspan x="0" y="0">T</tspan></text><text transform="translate(217.62 203.64) rotate(-63.62)" style="font-family:FuturaPT-Bold, &apos;Futura PT&apos;; font-size:23px; font-weight:700;"><tspan x="0" y="0">I</tspan></text><text transform="translate(222.71 192.83) rotate(-72.99)" style="font-family:FuturaPT-Bold, &apos;Futura PT&apos;; font-size:23px; font-weight:700;"><tspan x="0" y="0">L</tspan></text><text transform="translate(226.9 177.56) rotate(-83.91)" style="font-family:FuturaPT-Bold, &apos;Futura PT&apos;; font-size:23px; font-weight:700;"><tspan x="0" y="0">E</tspan></text><path d="M143.8,256.46c-55.45,0-100.57-45.12-100.57-100.57s45.12-100.57,100.57-100.57,100.57,45.12,100.57,100.57-45.12,100.57-100.57,100.57ZM143.8,60.32c-52.7,0-95.57,42.87-95.57,95.57s42.87,95.57,95.57,95.57,95.57-42.87,95.57-95.57-42.87-95.57-95.57-95.57Z"/><path d="M143.8,23.54l-9.76,9.76s3.7,7.21-5.15,10.25c0,0-8.67,1.84-9.5-6.55l-8.85-2.58,5.44,19.74s28.77-6.92,55.43,0l5.81-20.01-9.41,2.77s-.37,8.85-10.7,5.99c0,0-6.55-2.86-4.06-9.68l-9.25-9.68Z"/></g></g></svg>
