<?xml version="1.0" encoding="UTF-8"?><svg id="b" xmlns="http://www.w3.org/2000/svg" viewBox="0 0 280 280"><g id="c"><rect width="280" height="280" style="fill:#fff;"/><polygon points="116.49 211.31 138.72 234.01 147.11 225.53 124.78 203.01 116.49 211.31"/><polygon points="169.76 202.3 154.44 202.3 141.44 215.06 149.22 222.84 169.76 202.3"/><polygon points="139.02 212.87 149.55 202.33 128.74 202.33 139.02 212.87"/><polygon points="86.56 202.33 91.85 209.12 98.87 202.33 86.56 202.33"/><polygon points="102.89 202.33 93.94 211.31 103.58 220.28 121.06 202.33 102.89 202.33"/><polygon points="114.13 213.85 106.03 221.95 117.03 229.41 123.32 223.13 114.13 213.85"/><path d="M215.9,168.81v-56.35h-20.35c-59.48-58.11-110.54,0-110.54,0h-20.93v55.86c1.89,59.64,75.91,81.68,75.91,81.68,79.43-29.84,75.91-81.19,75.91-81.19ZM208.93,169.26c-2.23,54.42-68.93,75.51-68.93,75.51,0,0-66.7-21.08-68.93-75.51v-50.6h34.37l7.88,14.97-5.66,13.94-4.65-8.08-.88,29.78,27.16-63.73-3.03-6.87h27.47l-3.03,6.87,27.16,63.73-.88-29.78-4.65,8.08-5.66-13.94,7.88-14.97h34.37v50.6Z"/><path d="M196.88,185.06v5.77h-32.67v-2.1c4.77-3.47,3.28-7.19,3.28-7.19l-9.09-22.24h-10.77l-7.62,12.94-7.62-12.94h-10.77l-9.09,22.24s-1.5,3.73,3.28,7.19v2.1h-32.67v-5.77s4.39.23,6.2-4.9l.07-49.73s-.19-2.99-13.52-3.62l-.11,42.45s-.74,12.55,8.77,28.21l.05.07h110.84l.05-.07c9.51-15.66,8.77-28.21,8.77-28.21l-.11-42.45c-13.33.63-13.52,3.62-13.52,3.62l.07,49.73c1.8,5.13,6.2,4.9,6.2,4.9Z"/><path d="M120.02,230.9s13.54,8.29,20.93,10.34l-15.43-15.84-5.5,5.5Z"/><polygon points="153.53 147.36 140 117.45 126.47 147.36 140 147.16 153.53 147.36"/><path d="M186.94,210.68c4.63-4.47,6.5-8.38,6.5-8.38h-14.49l7.98,8.38Z"/><path d="M140.93,236.07l3.66,3.66s18.95-8.99,27.75-16.55l-9.18-9.33-22.22,22.22Z"/><path d="M165.21,211.65l9.83,9.83s5.8-4.66,9.7-8.6l-10.18-10.57-9.35,9.35Z"/><path d="M140.83,30l-16.65,16.65s6.31,12.29-8.79,17.48c0,0-14.79,3.15-16.2-11.17l-15.1-4.4,9.28,33.66s49.08-11.8,94.54,0l9.91-34.14-16.05,4.72s-.63,15.1-18.25,10.22c0,0-11.17-4.88-6.92-16.52l-15.78-16.52Z"/></g></svg>