<?xml version="1.0" encoding="UTF-8"?><svg id="b" xmlns="http://www.w3.org/2000/svg" viewBox="0 0 336.16 128.98"><g id="c"><g id="d"><path d="M140.42,69.15h-12.27l-.92-4.4c1.63,0,2.22-.49,1.57-2.33l-.92-2.55h-11.94l-.98,2.55c-.71,1.9.11,2.33,1.85,2.33l-.92,4.4h-10.58l-.92-4.4c1.95,0,2.61-.38,3.31-2.33l7.38-20.25c.43-1.25.11-2.06-2.01-2.06l.98-4.4h17.64l.98,4.4c-2.17,0-2.5.65-2.01,1.95l7.44,20.35c.65,1.9,1.25,2.33,3.26,2.33l-.92,4.4ZM123.27,45.7c-.54-1.85-1.08-6.24-1.08-6.24,0,0-.81,4.45-1.36,6.24l-3.15,8.63h8.58l-2.99-8.63Z" style="fill:#f2f2f2;"/><path d="M156.82,69.69c-2.61,0-4.72-2.12-4.72-4.72s2.12-4.72,4.72-4.72,4.78,2.12,4.78,4.72-2.17,4.72-4.78,4.72Z" style="fill:#f2f2f2;"/><path d="M215,69.15h-11.89l-.92-4.4c2.17,0,2.61-.71,2.61-2.55v-11.13c0-1.57.27-4.29.27-4.29,0,0-1.14,2.55-2.17,4.23l-6.51,10.37h-3.47l-6.4-10.15c-.98-1.68-2.12-4.29-2.12-4.29,0,0,.22,2.77.22,4.4v10.85c0,1.85.49,2.55,2.66,2.55l-.98,4.4h-11.18l-.98-4.4c2.17,0,2.66-.71,2.66-2.55v-19.54c0-1.9-.49-2.55-2.66-2.55l.98-4.4h9.93l9.99,16.12,9.99-16.12h9.99l.92,4.4c-2.17,0-2.6.65-2.6,2.55v19.54c0,1.85.43,2.55,2.6,2.55l-.92,4.4Z" style="fill:#f2f2f2;"/><path d="M261.14,69.15h-12.27l-.92-4.4c1.63,0,2.22-.49,1.57-2.33l-.92-2.55h-11.94l-.98,2.55c-.71,1.9.11,2.33,1.85,2.33l-.92,4.4h-10.58l-.92-4.4c1.95,0,2.61-.38,3.31-2.33l7.38-20.25c.43-1.25.11-2.06-2.01-2.06l.98-4.4h17.64l.98,4.4c-2.17,0-2.5.65-2.01,1.95l7.44,20.35c.65,1.9,1.25,2.33,3.26,2.33l-.92,4.4ZM243.99,45.7c-.54-1.85-1.08-6.24-1.08-6.24,0,0-.81,4.45-1.36,6.24l-3.15,8.63h8.58l-2.99-8.63Z" style="fill:#f2f2f2;"/><path d="M284.1,69.69c-6.57,0-11.34-2.12-13.46-3.26l1.85-7.22h3.04c1.19,3.8,4.99,5.21,8.47,5.21,2.66,0,5.43-1.25,5.43-4.07,0-2.44-1.85-3.53-7.33-4.5-5.59-.92-11.18-3.53-11.18-10.31s5.92-10.37,13.46-10.37c5.75,0,10.26,1.57,12.32,2.61l-1.79,6.84h-2.98c-1.41-3.2-4.78-4.29-7.49-4.29-2.99,0-5.1,1.36-5.1,3.58s1.9,3.15,5.97,3.85c7.44,1.3,12.75,3.58,12.75,11.02s-6.57,10.91-13.95,10.91Z" style="fill:#f2f2f2;"/><path d="M322.21,69.69c-6.57,0-11.34-2.12-13.46-3.26l1.85-7.22h3.04c1.19,3.8,4.99,5.21,8.47,5.21,2.66,0,5.43-1.25,5.43-4.07,0-2.44-1.85-3.53-7.33-4.5-5.59-.92-11.18-3.53-11.18-10.31s5.92-10.37,13.46-10.37c5.75,0,10.26,1.57,12.32,2.61l-1.79,6.84h-2.98c-1.41-3.2-4.78-4.29-7.49-4.29-2.99,0-5.1,1.36-5.1,3.58s1.9,3.15,5.97,3.85c7.44,1.3,12.75,3.58,12.75,11.02s-6.57,10.91-13.95,10.91Z" style="fill:#f2f2f2;"/><path d="M114.26,82.23h-5.83v4.99h5.62v1.77h-5.62v8.36h-1.87v-16.89h7.7v1.77Z" style="fill:#f2f2f2;"/><path d="M122.9,80.46v15.12h4.66v1.77h-6.54v-16.89h1.87Z" style="fill:#f2f2f2;"/><path d="M131.79,88.92c0-5.04,3.93-8.74,8.79-8.74s8.79,3.7,8.79,8.74-3.9,8.74-8.79,8.74-8.79-3.72-8.79-8.74ZM133.72,88.92c0,3.88,3.07,6.97,6.86,6.97s6.86-3.09,6.86-6.97-3.06-6.97-6.86-6.97-6.86,3.09-6.86,6.97Z" style="fill:#f2f2f2;"/><path d="M155.37,88.92c0-5.04,3.93-8.74,8.79-8.74s8.79,3.7,8.79,8.74-3.9,8.74-8.79,8.74-8.79-3.72-8.79-8.74ZM157.3,88.92c0,3.88,3.07,6.97,6.86,6.97s6.86-3.09,6.86-6.97-3.06-6.97-6.86-6.97-6.86,3.09-6.86,6.97Z" style="fill:#f2f2f2;"/><path d="M182.58,80.46c1.14,0,2.84.08,4.1.94.99.66,1.85,1.95,1.85,3.75,0,2.58-1.7,4.48-4.25,4.66l5.37,7.55h-2.28l-5.14-7.4h-.48v7.4h-1.87v-16.89h2.71ZM181.74,88.28h1.19c2.33,0,3.72-1.11,3.72-3.09,0-.94-.28-1.87-1.34-2.48-.76-.43-1.62-.48-2.43-.48h-1.14v6.05Z" style="fill:#f2f2f2;"/><path d="M197.93,80.46v16.89h-1.87v-16.89h1.87Z" style="fill:#f2f2f2;"/><path d="M205.76,97.35v-17.6l13.17,13.8v-13.09h1.88v17.65l-13.17-13.8v13.04h-1.87Z" style="fill:#f2f2f2;"/><path d="M237.34,88.87h7.04v.41c0,1.87-.56,3.9-1.62,5.34-.51.68-2.41,3.04-6.28,3.04-5.01,0-8.76-3.82-8.76-8.74s3.77-8.74,8.81-8.74c1.62,0,3.52.41,5.17,1.67.76.58,1.47,1.34,1.95,2l-1.39,1.27c-.48-.68-1.04-1.29-1.6-1.75-.81-.66-2.08-1.42-4.1-1.42-4.08,0-6.92,3.06-6.92,6.99,0,4.61,3.67,6.94,6.86,6.94,2.25,0,4.21-1.14,5.17-2.84.3-.53.63-1.34.68-2.41h-5.02v-1.77Z" style="fill:#f2f2f2;"/><path d="M273.67,91.17c-.46.63-1.12,1.44-2.15,2.51l2.84,3.67h-2.33l-1.82-2.36c-1.47,1.47-3.52,2.66-5.45,2.66-2.76,0-4.89-2-4.89-4.69,0-1.82.96-2.94,1.52-3.5.89-.89,2.48-1.87,2.84-2.1-1.14-1.47-1.67-2.48-1.67-3.62,0-1.77,1.24-3.57,3.67-3.57s3.57,1.7,3.57,3.39c0,.79-.23,1.9-1.57,3.06-.43.38-.28.18-1.37,1.09l3.52,4.53c.91-.96,1.44-1.57,1.92-2.23l1.37,1.14ZM265.31,88.76c-1.24.76-1.9,1.32-2.38,1.75s-1.19,1.11-1.19,2.43c0,1.67,1.24,2.99,2.99,2.99s3.7-1.72,4.33-2.33l-3.75-4.84ZM265.77,86.36l1.11-.86c.96-.76,1.14-1.37,1.14-1.95,0-1.19-.94-1.75-1.82-1.75-1.04,0-1.87.79-1.87,1.85,0,.73.35,1.22.68,1.67l.76,1.04Z" style="fill:#f2f2f2;"/><path d="M293.78,82.23v15.12h-1.87v-15.12h-4.1v-1.77h10.08v1.77h-4.1Z" style="fill:#f2f2f2;"/><path d="M305.76,80.46v16.89h-1.87v-16.89h1.87Z" style="fill:#f2f2f2;"/><path d="M315.46,80.46v15.12h4.66v1.77h-6.54v-16.89h1.87Z" style="fill:#f2f2f2;"/><path d="M334.89,82.23h-6.89v5.02h6.69v1.77h-6.69v6.56h6.89v1.77h-8.76v-16.89h8.76v1.77Z" style="fill:#f2f2f2;"/><polygon points="43.94 107.21 50.11 101.03 37.91 101.03 43.94 107.21" style="fill:#f2f2f2;"/><polygon points="30.73 106.29 43.76 119.6 48.68 114.63 35.59 101.43 30.73 106.29" style="fill:#f2f2f2;"/><polygon points="22.76 101.03 17.51 106.29 23.16 111.55 33.41 101.03 22.76 101.03" style="fill:#f2f2f2;"/><polygon points="52.45 68.81 44.51 51.27 36.58 68.81 44.51 68.69 52.45 68.81" style="fill:#f2f2f2;"/><polygon points="29.35 107.78 24.6 112.53 31.04 116.91 34.73 113.22 29.35 107.78" style="fill:#f2f2f2;"/><polygon points="13.18 101.03 16.28 105.01 20.4 101.03 13.18 101.03" style="fill:#f2f2f2;"/><polygon points="61.96 101.01 52.98 101.01 45.36 108.49 49.92 113.05 61.96 101.01" style="fill:#f2f2f2;"/><path d="M32.8,117.78s7.94,4.86,12.27,6.06l-9.05-9.29-3.22,3.22Z" style="fill:#f2f2f2;"/><path d="M89.01,81.38v-33.03h-11.93c-34.87-34.07-64.81,0-64.81,0H0v32.75c1.11,34.96,44.5,47.89,44.5,47.89,46.57-17.49,44.5-47.6,44.5-47.6ZM84.92,81.64c-1.31,31.91-40.41,44.27-40.41,44.27,0,0-39.1-12.36-40.41-44.27v-29.66h20.15l4.62,8.78-3.32,8.17-2.73-4.74-.51,17.46,15.92-37.36-1.77-4.03h16.11l-1.77,4.03,15.93,37.36-.52-17.46-2.73,4.74-3.32-8.17,4.62-8.78h20.15v29.66Z" style="fill:#f2f2f2;"/><path d="M72.03,105.93c2.71-2.62,3.81-4.91,3.81-4.91h-8.49l4.68,4.91Z" style="fill:#f2f2f2;"/><path d="M77.86,90.9v3.38h-19.15v-1.23c2.8-2.03,1.92-4.22,1.92-4.22l-5.33-13.04h-6.31l-4.47,7.59-4.47-7.59h-6.31l-5.33,13.04s-.88,2.19,1.92,4.22v1.23H11.16v-3.38s2.58.13,3.63-2.87l.04-29.16s-.11-1.75-7.93-2.12l-.06,24.89s-.43,7.36,5.14,16.54l.03.04h64.98l.03-.04c5.57-9.18,5.14-16.54,5.14-16.54l-.06-24.89c-7.82.37-7.93,2.12-7.93,2.12l.04,29.16c1.06,3.01,3.63,2.87,3.63,2.87Z" style="fill:#f2f2f2;"/><path d="M45.06,120.81l2.15,2.15s11.11-5.27,16.27-9.7l-5.38-5.47-13.03,13.03Z" style="fill:#f2f2f2;"/><path d="M59.29,106.49l5.76,5.76s3.4-2.73,5.69-5.04l-5.97-6.2-5.48,5.48Z" style="fill:#f2f2f2;"/><path d="M45,0l-9.76,9.76s3.7,7.21-5.15,10.25c0,0-8.67,1.84-9.5-6.55l-8.85-2.58,5.44,19.74s28.77-6.92,55.43,0l5.81-20.01-9.41,2.77s-.37,8.85-10.7,5.99c0,0-6.55-2.86-4.06-9.68L45,0Z" style="fill:#f2f2f2;"/></g></g></svg>