<?xml version="1.0" encoding="UTF-8"?><svg id="b" xmlns="http://www.w3.org/2000/svg" viewBox="0 0 231.77 62.94"><g id="c"><path d="M36.04,33.98h-12.27l-.92-4.4c1.63,0,2.22-.49,1.57-2.33l-.92-2.55h-11.94l-.98,2.55c-.71,1.9.11,2.33,1.85,2.33l-.92,4.4H.92l-.92-4.4c1.95,0,2.61-.38,3.31-2.33L10.69,7c.43-1.25.11-2.06-2.01-2.06l.98-4.4h17.64l.98,4.4c-2.17,0-2.5.65-2.01,1.95l7.44,20.35c.65,1.9,1.25,2.33,3.26,2.33l-.92,4.4ZM18.89,10.53c-.54-1.85-1.08-6.24-1.08-6.24,0,0-.81,4.45-1.36,6.24l-3.15,8.63h8.58l-2.99-8.63Z"/><path d="M52.43,34.52c-2.61,0-4.72-2.12-4.72-4.72s2.12-4.72,4.72-4.72,4.78,2.12,4.78,4.72-2.17,4.72-4.78,4.72Z"/><path d="M110.62,33.98h-11.89l-.92-4.4c2.17,0,2.61-.71,2.61-2.55v-11.13c0-1.57.27-4.29.27-4.29,0,0-1.14,2.55-2.17,4.23l-6.51,10.37h-3.47l-6.4-10.15c-.98-1.68-2.12-4.29-2.12-4.29,0,0,.22,2.77.22,4.4v10.85c0,1.85.49,2.55,2.66,2.55l-.98,4.4h-11.18l-.98-4.4c2.17,0,2.66-.71,2.66-2.55V7.49c0-1.9-.49-2.55-2.66-2.55l.98-4.4h9.93l9.99,16.12L100.63.54h9.99l.92,4.4c-2.17,0-2.6.65-2.6,2.55v19.54c0,1.85.43,2.55,2.6,2.55l-.92,4.4Z"/><path d="M156.76,33.98h-12.27l-.92-4.4c1.63,0,2.22-.49,1.57-2.33l-.92-2.55h-11.94l-.98,2.55c-.71,1.9.11,2.33,1.85,2.33l-.92,4.4h-10.58l-.92-4.4c1.95,0,2.61-.38,3.31-2.33l7.38-20.25c.43-1.25.11-2.06-2.01-2.06l.98-4.4h17.64l.98,4.4c-2.17,0-2.5.65-2.01,1.95l7.44,20.35c.65,1.9,1.25,2.33,3.26,2.33l-.92,4.4ZM139.61,10.53c-.54-1.85-1.08-6.24-1.08-6.24,0,0-.81,4.45-1.36,6.24l-3.15,8.63h8.58l-2.99-8.63Z"/><path d="M179.72,34.52c-6.57,0-11.34-2.12-13.46-3.26l1.85-7.22h3.04c1.19,3.8,4.99,5.21,8.47,5.21,2.66,0,5.43-1.25,5.43-4.07,0-2.44-1.85-3.53-7.33-4.5-5.59-.92-11.18-3.53-11.18-10.31s5.92-10.37,13.46-10.37c5.75,0,10.26,1.57,12.32,2.61l-1.79,6.84h-2.98c-1.41-3.2-4.78-4.29-7.49-4.29-2.99,0-5.1,1.36-5.1,3.58s1.9,3.15,5.97,3.85c7.44,1.3,12.75,3.58,12.75,11.02s-6.57,10.91-13.95,10.91Z"/><path d="M217.83,34.52c-6.57,0-11.34-2.12-13.46-3.26l1.85-7.22h3.04c1.19,3.8,4.99,5.21,8.47,5.21,2.66,0,5.43-1.25,5.43-4.07,0-2.44-1.85-3.53-7.33-4.5-5.59-.92-11.18-3.53-11.18-10.31s5.92-10.37,13.46-10.37c5.75,0,10.26,1.57,12.32,2.61l-1.79,6.84h-2.98c-1.41-3.2-4.78-4.29-7.49-4.29-2.99,0-5.1,1.36-5.1,3.58s1.9,3.15,5.97,3.85c7.44,1.3,12.75,3.58,12.75,11.02s-6.57,10.91-13.95,10.91Z"/><path d="M9.88,47.05h-5.83v4.99h5.62v1.77h-5.62v8.36h-1.87v-16.89h7.7v1.77Z"/><path d="M18.52,45.28v15.12h4.66v1.77h-6.54v-16.89h1.87Z"/><path d="M27.41,53.74c0-5.04,3.93-8.74,8.79-8.74s8.79,3.7,8.79,8.74-3.9,8.74-8.79,8.74-8.79-3.72-8.79-8.74ZM29.33,53.74c0,3.88,3.07,6.97,6.86,6.97s6.86-3.09,6.86-6.97-3.06-6.97-6.86-6.97-6.86,3.09-6.86,6.97Z"/><path d="M50.99,53.74c0-5.04,3.93-8.74,8.79-8.74s8.79,3.7,8.79,8.74-3.9,8.74-8.79,8.74-8.79-3.72-8.79-8.74ZM52.92,53.74c0,3.88,3.07,6.97,6.86,6.97s6.86-3.09,6.86-6.97-3.06-6.97-6.86-6.97-6.86,3.09-6.86,6.97Z"/><path d="M78.2,45.28c1.14,0,2.84.08,4.1.94.99.66,1.85,1.95,1.85,3.75,0,2.58-1.7,4.48-4.25,4.66l5.37,7.55h-2.28l-5.14-7.4h-.48v7.4h-1.87v-16.89h2.71ZM77.36,53.11h1.19c2.33,0,3.72-1.11,3.72-3.09,0-.94-.28-1.87-1.34-2.48-.76-.43-1.62-.48-2.43-.48h-1.14v6.05Z"/><path d="M93.55,45.28v16.89h-1.87v-16.89h1.87Z"/><path d="M101.38,62.18v-17.6l13.17,13.8v-13.09h1.88v17.65l-13.17-13.8v13.04h-1.87Z"/><path d="M132.96,53.69h7.04v.41c0,1.87-.56,3.9-1.62,5.34-.51.68-2.41,3.04-6.28,3.04-5.01,0-8.76-3.82-8.76-8.74s3.77-8.74,8.81-8.74c1.62,0,3.52.41,5.17,1.67.76.58,1.47,1.34,1.95,2l-1.39,1.27c-.48-.68-1.04-1.29-1.6-1.75-.81-.66-2.08-1.42-4.1-1.42-4.08,0-6.92,3.06-6.92,6.99,0,4.61,3.67,6.94,6.86,6.94,2.25,0,4.21-1.14,5.17-2.84.3-.53.63-1.34.68-2.41h-5.02v-1.77Z"/><path d="M169.29,56c-.46.63-1.12,1.44-2.15,2.51l2.84,3.67h-2.33l-1.82-2.36c-1.47,1.47-3.52,2.66-5.45,2.66-2.76,0-4.89-2-4.89-4.69,0-1.82.96-2.94,1.52-3.5.89-.89,2.48-1.87,2.84-2.1-1.14-1.47-1.67-2.48-1.67-3.62,0-1.77,1.24-3.57,3.67-3.57s3.57,1.7,3.57,3.39c0,.79-.23,1.9-1.57,3.06-.43.38-.28.18-1.37,1.09l3.52,4.53c.91-.96,1.44-1.57,1.92-2.23l1.37,1.14ZM160.93,53.59c-1.24.76-1.9,1.32-2.38,1.75s-1.19,1.11-1.19,2.43c0,1.67,1.24,2.99,2.99,2.99s3.7-1.72,4.33-2.33l-3.75-4.84ZM161.38,51.18l1.11-.86c.96-.76,1.14-1.37,1.14-1.95,0-1.19-.94-1.75-1.82-1.75-1.04,0-1.87.79-1.87,1.85,0,.73.35,1.22.68,1.67l.76,1.04Z"/><path d="M189.4,47.05v15.12h-1.87v-15.12h-4.1v-1.77h10.08v1.77h-4.1Z"/><path d="M201.38,45.28v16.89h-1.87v-16.89h1.87Z"/><path d="M211.08,45.28v15.12h4.66v1.77h-6.54v-16.89h1.87Z"/><path d="M230.51,47.05h-6.89v5.02h6.69v1.77h-6.69v6.56h6.89v1.77h-8.76v-16.89h8.76v1.77Z"/></g></svg>