<?xml version="1.0" encoding="UTF-8"?><svg id="b" xmlns="http://www.w3.org/2000/svg" viewBox="0 0 89.02 128.98"><g id="c"><polygon points="43.94 107.21 50.11 101.03 37.91 101.03 43.94 107.21" style="fill:#f2f2f2;"/><polygon points="30.73 106.29 43.76 119.6 48.68 114.63 35.59 101.43 30.73 106.29" style="fill:#f2f2f2;"/><polygon points="22.76 101.03 17.51 106.29 23.16 111.55 33.41 101.03 22.76 101.03" style="fill:#f2f2f2;"/><polygon points="52.45 68.81 44.51 51.27 36.58 68.81 44.51 68.69 52.45 68.81" style="fill:#f2f2f2;"/><polygon points="29.35 107.78 24.6 112.53 31.04 116.91 34.73 113.22 29.35 107.78" style="fill:#f2f2f2;"/><polygon points="13.18 101.03 16.28 105.01 20.4 101.03 13.18 101.03" style="fill:#f2f2f2;"/><polygon points="61.96 101.01 52.98 101.01 45.36 108.49 49.92 113.05 61.96 101.01" style="fill:#f2f2f2;"/><path d="M32.8,117.78s7.94,4.86,12.27,6.06l-9.05-9.29-3.22,3.22Z" style="fill:#f2f2f2;"/><path d="M89.01,81.38v-33.03h-11.93c-34.87-34.07-64.81,0-64.81,0H0v32.75c1.11,34.96,44.5,47.89,44.5,47.89,46.57-17.49,44.5-47.6,44.5-47.6ZM84.92,81.64c-1.31,31.91-40.41,44.27-40.41,44.27,0,0-39.1-12.36-40.41-44.27v-29.66h20.15l4.62,8.78-3.32,8.17-2.73-4.74-.51,17.46,15.92-37.36-1.77-4.03h16.11l-1.77,4.03,15.93,37.36-.52-17.46-2.73,4.74-3.32-8.17,4.62-8.78h20.15v29.66Z" style="fill:#f2f2f2;"/><path d="M72.03,105.93c2.71-2.62,3.81-4.91,3.81-4.91h-8.49l4.68,4.91Z" style="fill:#f2f2f2;"/><path d="M77.86,90.9v3.38h-19.15v-1.23c2.8-2.03,1.92-4.22,1.92-4.22l-5.33-13.04h-6.31l-4.47,7.59-4.47-7.59h-6.31l-5.33,13.04s-.88,2.19,1.92,4.22v1.23H11.16v-3.38s2.58.13,3.63-2.87l.04-29.16s-.11-1.75-7.93-2.12l-.06,24.89s-.43,7.36,5.14,16.54l.03.04h64.98l.03-.04c5.57-9.18,5.14-16.54,5.14-16.54l-.06-24.89c-7.82.37-7.93,2.12-7.93,2.12l.04,29.16c1.06,3.01,3.63,2.87,3.63,2.87Z" style="fill:#f2f2f2;"/><path d="M45.06,120.81l2.15,2.15s11.11-5.27,16.27-9.7l-5.38-5.47-13.03,13.03Z" style="fill:#f2f2f2;"/><path d="M59.29,106.49l5.76,5.76s3.4-2.73,5.69-5.04l-5.97-6.2-5.48,5.48Z" style="fill:#f2f2f2;"/><path d="M45,0l-9.76,9.76s3.7,7.21-5.15,10.25c0,0-8.67,1.84-9.5-6.55l-8.85-2.58,5.44,19.74s28.77-6.92,55.43,0l5.81-20.01-9.41,2.77s-.37,8.85-10.7,5.99c0,0-6.55-2.86-4.06-9.68L45,0Z" style="fill:#f2f2f2;"/></g></svg>